<svg width="16" height="16" viewBox="0 0 16 16" fill="none" xmlns="http://www.w3.org/2000/svg">
<g clip-path="url(#clip0_2053_403)">
<path d="M15.9583 3.22292V12.775C15.9583 13.3171 15.5452 13.7302 15.0031 13.7302H14.0479V5.06121L8.31667 9.17816L2.58542 5.06121V13.7302H1.63021C1.08813 13.7302 0.675003 13.3171 0.675003 12.775V3.22292C0.675003 2.95164 0.77721 2.71284 0.94867 2.54376C1.03792 2.45435 1.14426 2.38383 1.26136 2.3364C1.37845 2.28897 1.50389 2.26561 1.63021 2.26771H1.94877L8.31667 6.88471L14.6846 2.26771H15.0031C15.2744 2.26771 15.5132 2.36992 15.6847 2.54376C15.8561 2.71284 15.9583 2.95164 15.9583 3.22292Z" fill="white"/>
</g>
<defs>
<clipPath id="clip0_2053_403">
<rect width="15.2833" height="15.2833" fill="white" transform="translate(0.675003 0.358398)"/>
</clipPath>
</defs>
</svg>
